<svg width="35" height="35" viewBox="0 0 35 35" fill="none" xmlns="http://www.w3.org/2000/svg">
<g clip-path="url(#clip0_15_66)">
<path d="M10.2083 35C10.0164 35.0011 9.82615 34.9643 9.64847 34.8917C9.47079 34.8192 9.30919 34.7122 9.17292 34.5771C9.03623 34.4415 8.92774 34.2802 8.8537 34.1025C8.77967 33.9248 8.74155 33.7342 8.74155 33.5417C8.74155 33.3491 8.77967 33.1585 8.8537 32.9808C8.92774 32.8031 9.03623 32.6418 9.17292 32.5062L21.0875 20.5917C21.9068 19.7713 22.367 18.6594 22.367 17.5C22.367 16.3406 21.9068 15.2286 21.0875 14.4083L9.17292 2.49374C8.89831 2.21913 8.74404 1.84668 8.74404 1.45832C8.74404 1.06996 8.89831 0.697512 9.17292 0.422902C9.44753 0.148293 9.81998 -0.00598145 10.2083 -0.00598145C10.5967 -0.00598145 10.9691 0.148293 11.2438 0.422902L23.1583 12.3375C23.8374 13.0148 24.3761 13.8195 24.7437 14.7053C25.1113 15.5912 25.3005 16.5409 25.3005 17.5C25.3005 18.4591 25.1113 19.4088 24.7437 20.2946C24.3761 21.1805 23.8374 21.9852 23.1583 22.6625L11.2438 34.5771C11.1075 34.7122 10.9459 34.8192 10.7682 34.8917C10.5905 34.9643 10.4003 35.0011 10.2083 35Z" fill="#031C26" fill-opacity="0.63"/>
</g>
<defs>
<clipPath id="clip0_15_66">
<rect width="35" height="35" fill="white"/>
</clipPath>
</defs>
</svg>
